<?xml version="1.0" standalone="no"?>
<!DOCTYPE svg PUBLIC "-//W3C//DTD SVG 20010904//EN"
 "http://www.w3.org/TR/2001/REC-SVG-20010904/DTD/svg10.dtd">
<svg version="1.0" xmlns="http://www.w3.org/2000/svg"
 width="300.000000pt" height="300.000000pt" viewBox="0 0 300.000000 300.000000"
 preserveAspectRatio="xMidYMid meet">

<g transform="translate(0.000000,300.000000) scale(0.100000,-0.100000)"
fill="#000000" stroke="none">
<path d="M956 2657 c-76 -76 -97 -397 -47 -717 18 -114 65 -347 76 -377 3 -9
13 -8 37 7 l33 19 0 503 c0 483 -1 505 -20 543 -24 48 -46 54 -79 22z"/>
<path d="M2275 2509 c-66 -18 -216 -172 -316 -325 -57 -85 -142 -253 -220
-429 -56 -129 -57 -130 -35 -142 41 -24 52 -15 106 79 99 175 163 270 311 469
82 110 160 219 173 242 49 84 42 122 -19 106z"/>
<path d="M1293 1591 c-113 -18 -103 -5 -103 -142 0 -121 0 -121 23 -115 12 3
63 11 114 18 88 11 170 5 286 -19 l27 -5 0 120 0 120 -52 12 c-70 15 -230 21
-295 11z"/>
<path d="M2152 1585 c-26 -19 -29 -47 -6 -69 38 -39 110 6 84 53 -6 12 -15 21
-20 21 -4 0 -14 2 -22 5 -7 3 -23 -2 -36 -10z"/>
<path d="M1055 1512 c-294 -155 -420 -566 -270 -881 68 -143 212 -252 400
-303 106 -28 334 -31 440 -4 177 43 337 159 409 295 53 102 69 182 63 326 -8
203 -70 349 -200 471 -54 52 -185 134 -212 134 -3 0 -5 -53 -5 -117 l0 -118
77 -39 c86 -45 186 -133 233 -206 95 -148 92 -342 -8 -474 -71 -93 -175 -156
-328 -197 -115 -32 -353 -32 -476 -1 -132 33 -211 75 -294 157 -77 76 -108
138 -120 238 -21 180 108 388 299 482 l77 38 0 119 c0 65 -3 118 -7 118 -5 0
-39 -17 -78 -38z"/>
<path d="M620 1067 c-24 -12 -25 -17 -28 -110 l-3 -97 39 0 39 0 7 86 c3 48 9
97 12 110 5 20 2 24 -17 24 -13 0 -35 -6 -49 -13z"/>
<path d="M2144 1034 c3 -26 6 -75 6 -110 l0 -64 45 0 45 0 0 85 c0 78 -2 88
-25 110 -13 14 -36 25 -51 25 -26 0 -27 -1 -20 -46z"/>
<path d="M1006 938 c-35 -49 -7 -108 50 -108 41 0 74 29 74 65 0 59 -91 90
-124 43z m90 -9 c10 -17 -13 -36 -27 -22 -12 12 -4 33 11 33 5 0 12 -5 16 -11z"/>
<path d="M1707 942 c-22 -25 -21 -75 1 -95 42 -39 115 -8 115 48 0 57 -79 88
-116 47z m83 -22 c0 -11 -7 -20 -15 -20 -15 0 -21 21 -8 33 12 13 23 7 23 -13z"/>
<path d="M1363 838 c-38 -18 -39 -46 -4 -82 23 -24 31 -41 31 -69 0 -60 -61
-78 -106 -30 -13 14 -27 23 -30 20 -11 -11 54 -67 78 -67 13 0 33 7 46 15 19
14 24 14 51 0 17 -8 39 -15 50 -15 22 0 81 46 81 63 0 6 -13 -1 -28 -16 -32
-30 -67 -34 -100 -11 -35 25 -29 71 16 117 l37 38 -28 25 c-30 26 -58 29 -94
12z"/>
<path d="M590 786 c0 -41 28 -66 75 -66 l32 0 -11 50 -10 50 -43 0 c-42 0 -43
-1 -43 -34z"/>
<path d="M2145 808 c-2 -7 -6 -30 -10 -50 -6 -38 -6 -38 30 -38 44 0 75 29 75
70 0 29 -2 30 -45 30 -28 0 -47 -5 -50 -12z"/>
<path d="M893 366 l-28 -24 25 -27 c40 -43 152 -113 224 -140 151 -57 345 -68
505 -29 97 24 221 86 283 143 l53 50 -26 26 -26 27 -96 -47 c-247 -120 -595
-114 -824 15 -29 17 -55 30 -57 30 -3 0 -18 -11 -33 -24z"/>
</g>
</svg>
