<svg xmlns="http://www.w3.org/2000/svg" xmlns:xlink="http://www.w3.org/1999/xlink" viewBox="0 0 68 68" class="design-iconfont">
  <defs>
    <rect id="9r5deue1o__mel3kbi8ya" x="0" y="0" width="68" height="68" rx="2"/>
    <mask id="9r5deue1o__4mmik21smb" maskContentUnits="userSpaceOnUse" maskUnits="objectBoundingBox" x="0" y="0" width="68" height="68" fill="#fff">
      <use xlink:href="#9r5deue1o__mel3kbi8ya"/>
    </mask>
  </defs>
  <g fill="none" fill-rule="evenodd">
    <use stroke="#C4C6CC" mask="url(#9r5deue1o__4mmik21smb)" stroke-width="2" stroke-dasharray="3" xlink:href="#9r5deue1o__mel3kbi8ya"/>
    <path d="M0,0 L38,0 L38,38 L0,38 L0,0 Z M26.6,15.2 C28.6266667,15.2 30.4,13.4266667 30.4,11.4 C30.4,9.37333335 28.6266667,7.6 26.6,7.6 C24.5733333,7.6 22.8,9.37333335 22.8,11.4 C22.8,13.4266667 24.5733333,15.2 26.6,15.2 Z M16.4666667,25.08 L13.9333333,21.0266667 C13.9333333,20.7733333 13.68,20.7733333 13.4266667,20.52 C12.6666667,20.2666667 11.9066667,20.2666667 11.6533333,21.0266667 L5.06666665,31.16 L5.06666665,31.6666667 C5.06666665,32.4266667 5.57333331,32.9333333 6.33333335,32.9333333 L32.1733333,32.9333333 C32.68,32.9333333 33.1866667,32.4266667 33.1866667,31.92 C33.1866667,31.6666667 33.1866667,31.4133333 32.9333333,31.4133333 L27.36,23.56 C27.1066667,23.0533333 26.3466667,23.0533333 25.84,23.3066667 L25.5866667,23.56 L25.08,24.0666667 L21.5333333,29.64 C21.0266667,30.1466667 20.2666667,30.4 19.76,29.8933333 C19.5066667,29.8933333 19.5066667,29.64 19.5066667,29.3866667 L16.4666667,25.08 Z" fill="#C4C6CC" transform="translate(15 15)"/>
  </g>
</svg>
