<svg xmlns="http://www.w3.org/2000/svg" viewBox="0 0 68 68" class="design-iconfont">
  <path d="M8,21 L24,21 L24,28.7142857 L8,28.7142857 L8,21 Z M8,30.6428571 L24,30.6428571 L24,38.3571429 L8,38.3571429 L8,30.6428571 Z M8,40.2857143 L24,40.2857143 L24,48 L8,48 L8,40.2857143 Z M26,21 L42,21 L42,28.7142857 L26,28.7142857 L26,21 Z M26,30.6428571 L42,30.6428571 L42,38.3571429 L26,38.3571429 L26,30.6428571 Z M26,40.2857143 L42,40.2857143 L42,48 L26,48 L26,40.2857143 Z M44,21 L60,21 L60,28.7142857 L44,28.7142857 L44,21 Z M44,30.6428571 L60,30.6428571 L60,38.3571429 L44,38.3571429 L44,30.6428571 Z M44,40.2857143 L60,40.2857143 L60,48 L44,48 L44,40.2857143 Z" fill="#A3C5FD" fill-rule="evenodd"/>
</svg>
