<svg viewBox="0 0 1024 1024" version="1.1" xmlns="http://www.w3.org/2000/svg"><path fill="none" d="M638.7492571428571 482.42834285714287L501.32114285714283 345.0002285714286 363.89302857142854 482.42834285714287a53.489371428571424 53.489371428571424 0 0 0 0 75.65897142857143L501.32114285714283 695.5154285714285 638.7492571428571 558.08A53.504000000000005 53.504000000000005 0 0 0 638.7492571428571 482.42834285714287ZM575.7293714285714 541.4765714285714L498.6441142857143 618.5618285714286 421.55885714285716 541.4765714285714a29.98857142857143 29.98857142857143 0 0 1 0-42.42285714285714L498.6441142857143 421.9538285714286 575.7293714285714 499.0390857142857A29.98857142857143 29.98857142857143 0 0 1 575.7293714285714 541.4765714285714Z"/><path fill="none" d="M638.7492571428571 482.42834285714287L501.32114285714283 345.0002285714286 363.89302857142854 482.42834285714287a53.489371428571424 53.489371428571424 0 0 0 0 75.65897142857143L501.32114285714283 695.5154285714285 638.7492571428571 558.08A53.504000000000005 53.504000000000005 0 0 0 638.7492571428571 482.42834285714287ZM575.7293714285714 541.4765714285714L498.6441142857143 618.5618285714286 421.55885714285716 541.4765714285714a29.98857142857143 29.98857142857143 0 0 1 0-42.42285714285714L498.6441142857143 421.9538285714286 575.7293714285714 499.0390857142857A29.98857142857143 29.98857142857143 0 0 1 575.7293714285714 541.4765714285714Z"/><path fill="#12c7e0" d="M363.89302857142854 482.42834285714287L501.32114285714283 345.0002285714286 399.1625142857143 242.83428571428573a53.489371428571424 53.489371428571424 0 0 0-75.65897142857143 0L83.90948571428571 482.42834285714287a53.504000000000005 53.504000000000005 0 0 0 0 75.65897142857143l239.59405714285714 239.59405714285714a53.504000000000005 53.504000000000005 0 0 0 75.65897142857143 0L501.32114285714283 695.5154285714285 363.89302857142854 558.08A53.489371428571424 53.489371428571424 0 0 1 363.89302857142854 482.42834285714287Z"/><path fill="#0f82ff" d="M918.7328 482.42834285714287L679.1387428571428 242.83428571428573a53.489371428571424 53.489371428571424 0 0 0-75.65897142857143 0L501.32114285714283 345.0002285714286 638.7492571428571 482.42834285714287a53.504000000000005 53.504000000000005 0 0 1 0 75.65897142857143L501.32114285714283 695.5154285714285l102.15862857142857 102.16594285714287a53.504000000000005 53.504000000000005 0 0 0 75.65897142857143 0L918.7328 558.08A53.504000000000005 53.504000000000005 0 0 0 918.7328 482.42834285714287Z"/><path fill="#0f82ff" d="M498.6441142857143 421.9538285714286L421.55885714285716 499.0390857142857a29.98857142857143 29.98857142857143 0 0 0 0 42.42285714285714L498.6441142857143 618.5618285714286 575.7293714285714 541.4765714285714a29.98857142857143 29.98857142857143 0 0 0 0-42.42285714285714Z"/></svg>