<svg xmlns="http://www.w3.org/2000/svg" viewBox="0 0 68 68" class="design-iconfont">
  <g fill="none" fill-rule="evenodd">
    <path d="M48.289441,18.6133648 C48.753719,20.4975355 49,22.4675122 49,24.4950109 C49,26.4111833 48.7800222,28.2759771 48.3639426,30.0655164 L39.3901049,27.825366 C39.6288123,26.7533889 39.754717,25.6389032 39.754717,24.4950109 C39.754717,23.295029 39.6161624,22.1274083 39.3541785,21.0072741 L48.289441,18.6133648 Z M0.710559037,18.6133648 L9.64582154,21.0072741 C9.38383764,22.1274083 9.24528302,23.295029 9.24528302,24.4950109 C9.24528302,25.604863 9.3638058,26.6870326 9.58888461,27.729553 L0.630937307,30.0434484 C0.218173369,28.2606482 0,26.4033081 0,24.4950109 C0,22.4675122 0.246280974,20.4975355 0.710559037,18.6133648 Z M8.28777593,6.12579381 L14.2330434,13.2123166 C12.4725872,14.8152177 11.0887199,16.8245513 10.229759,19.0919998 L1.26879957,16.6919716 C2.6521638,12.571741 5.10094188,8.94056245 8.28777593,6.12579381 Z M41.2790644,6.64237568 C44.1897187,9.37905094 46.4310245,12.81951 47.7312004,16.6919716 L38.770241,19.0919998 C38.0035957,17.068242 36.8188081,15.2500995 35.3213305,13.7430245 L41.2790644,6.64237568 Z M26.0009875,0.0402369928 C31.1910051,0.353904399 35.9450754,2.28329581 39.7668201,5.33203303 L33.8217028,12.4188058 C31.6157128,10.7134839 28.929625,9.59917716 26.0007323,9.31317846 L26.0009875,0.0402369928 Z M24.0005722,-1.20433177e-14 L24.000265,9.24832482 C20.9563411,9.34629465 18.1376923,10.3360267 15.7970351,11.9648046 L9.83901043,4.86397516 C13.8029655,1.89880632 18.6948761,0.106091197 24.0005722,-1.20433177e-14 Z M12,30.9950109 L36,30.9950109 L36,36.9950109 L12,36.9950109 L12,30.9950109 Z" fill="#A3C5FD" transform="translate(9 15.004989)"/>
    <path fill="#3A84FF" transform="rotate(30 3.00030934 50.29173413)" d="M26.5 15.9950109L30 32.9950109 26.5 35.9950109 23 32.9950109z"/>
  </g>
</svg>
